<?xml version="1.0" encoding="UTF-8" standalone="no"?>
<!-- Created with Inkscape (http://www.inkscape.org/) -->

<svg
   version="1.1"
   id="svg2"
   width="32"
   height="32"
   viewBox="0 0 32.000002 32"
   sodipodi:docname="favicon.svg"
   inkscape:version="1.1.2 (0a00cf5339, 2022-02-04)"
   inkscape:export-filename="/home/motuzj/projects/fotografka/img/favicon.png"
   inkscape:export-xdpi="96"
   inkscape:export-ydpi="96"
   xmlns:inkscape="http://www.inkscape.org/namespaces/inkscape"
   xmlns:sodipodi="http://sodipodi.sourceforge.net/DTD/sodipodi-0.dtd"
   xmlns="http://www.w3.org/2000/svg"
   xmlns:svg="http://www.w3.org/2000/svg">
  <defs
     id="defs6" />
  <sodipodi:namedview
     id="namedview4"
     pagecolor="#ffffff"
     bordercolor="#666666"
     borderopacity="1.0"
     inkscape:pageshadow="2"
     inkscape:pageopacity="0.0"
     inkscape:pagecheckerboard="0"
     showgrid="false"
     fit-margin-top="0"
     fit-margin-left="0"
     fit-margin-right="0"
     fit-margin-bottom="0"
     inkscape:zoom="11.313708"
     inkscape:cx="14.053747"
     inkscape:cy="14.363107"
     inkscape:window-width="1920"
     inkscape:window-height="1001"
     inkscape:window-x="0"
     inkscape:window-y="0"
     inkscape:window-maximized="1"
     inkscape:current-layer="g1810" />
  <g
     inkscape:groupmode="layer"
     inkscape:label="Image"
     id="g8"
     transform="translate(-73.348296,-4.0781185)">
    <g
       id="g1810"
       transform="matrix(0.01793501,0,0,0.01793501,72.084964,14.159694)">
      <path
         id="path1814"
         style="fill:#dcc991;stroke-width:0.727273;fill-opacity:1"
         d="M 839.45756,5.3230545 C 742.4635,11.550222 646.63263,27.475544 554.42292,58.733657 475.64393,79.678736 407.29788,123.5673 333.29251,155.46323 c -67.97084,40.03258 -129.39165,90.05074 -192.13324,137.63552 -36.84112,52.17326 53.73343,-6.76681 64.97146,14.40602 18.99449,-23.41522 61.05692,-62.06077 53.97585,-37.96536 57.99157,-39.17081 120.18115,-71.56599 185.11807,-99.62492 179.08118,-79.892211 383.94586,-116.028988 577.92415,-77.241191 103.8506,21.655561 200.0506,79.062481 269.1147,159.154461 48.5251,49.12651 31.3247,130.70504 97.5376,161.9937 85.0714,-1.21134 37.1785,-93.6338 12.4683,-136.20051 C 1302.9453,91.763174 1082.7919,0.13558875 879.09695,6.6427202 865.87634,6.5299674 852.65022,6.2369242 839.45756,5.3230545 Z m 159.8047,7.4355465 c -0.9989,3.267413 3.60034,-0.675079 0,0 z M 735.3228,99.754695 c -6.48085,-0.358256 0.88593,3.850015 0,0 z M 946.61967,119.97345 C 829.1036,117.82884 735.18224,234.76383 746.68449,348.66389 c -6.16735,68.74501 47.33102,113.50212 94.92218,152.13135 64.94866,43.2435 149.76218,50.29521 223.37473,28.76252 16.9714,-5.29587 101.8168,-44.3969 105.8175,-95.6012 19.9938,-76.66589 7.732,-166.71465 -40.558,-230.81429 -43.6334,-54.60779 -114.0316,-85.49477 -183.62123,-83.16882 z m -406.15233,1.45117 0.0172,1.13913 z m -43.06641,20.99414 1.1159,0.55754 z m 450.93749,46.4668 c 58.14688,4.80966 124.06688,22.51079 145.37968,84.27351 32.7597,92.15276 -50.747,216.30074 -154.21446,192.59515 -94.77449,-19.27473 -143.34629,-162.21387 -60.78207,-224.29242 20.11045,-20.6982 34.68834,-56.52204 69.61685,-52.57624 z m -49.98827,25.3457 c 7.80459,-2.99259 -2.63239,5.65843 0,0 z m -560.7754,1.36524 c 6.60205,1.29751 -3.46185,4.84693 0,0 z m -14.78125,2.62109 c 4.69318,0.19842 -3.32053,3.54917 0,0 z m 564.97851,2.46875 c -1.65612,21.636 -24.22148,-5.2015 0,0 z m -565.8789,0.60156 c 2.39571,2.39911 -3.69169,0.95894 0,0 z m -38.01172,3.61133 c 5.76465,-0.43838 -3.7523,3.99029 0,0 z m 40.78906,1.00586 c 3.63599,-0.0772 -2.39028,3.37705 0,0 z m -53.97656,8.61719 c 4.98295,6.0908 -10.78357,2.19314 0,0 z m 784.94141,5.75781 c -4.7996,4.29952 7.5726,3.56434 0,0 z m -768.05469,1.625 c 3.6318,-0.0729 -2.39313,3.37468 0,0 z m 8.51368,0.0801 c 3.43466,4.56657 -4.76932,-1.16917 0,0 z m -1.10938,4.57422 c 3.76784,0.95425 -3.22563,3.22805 0,0 z m 213.92773,1.09375 c -54.12039,46.69385 10.76079,116.60645 32.07173,165.03831 113.08482,175.63294 333.41353,252.23582 535.25443,240.09166 144.7955,-2.62639 288.312,-39.7398 419.0232,-101.27092 73.007,-36.02355 148.6397,-69.9138 209.735,-125.03123 23.4066,-16.66575 122.9573,-73.72619 65.2316,-81.75716 -39.0602,24.04025 -65.5219,-7.91926 -82.8831,46.86042 -54.4364,19.45072 -106.9589,46.59521 -158.9843,76.8038 C 1333.1894,563.2744 1106.07,611.53041 891.3146,564.58913 763.99404,531.78286 631.6904,451.90908 588.04429,321.01634 c 8.27053,-38.14477 -43.2226,-77.12489 -79.13165,-73.36318 z m 571.38486,20.64648 c -7.7052,8.92781 11.0208,3.77472 0,0 z m -846.004,0.68946 c 4.00812,1.0808 -3.48307,3.95535 0,0 z m 33.66016,0.82226 c -3.5514,0.24384 2.30375,2.54086 0,0 z m -89.48437,1.24024 c 24.34103,6.72976 -20.21786,17.51431 0,0 z m 37.56444,2.5664 c 23.80531,2.51868 -36.8716,26.60203 0,0 z m -26.73828,0.6875 c 8.6641,-0.47032 -5.14705,4.77329 0,0 z m 1611.83595,2.39258 c -7.9799,-0.32093 4.2029,5.15646 0,0 z m -715.3457,0.44531 c -2.9666,7.60083 5.4942,5.25406 0,0 z m 708.6133,2.78711 c -0.9382,5.54588 7.8147,0.26173 0,0 z m -1617.26761,0.16406 c -1.54194,4.65008 6.23653,-2.02651 0,0 z m 66.96484,0.32618 c -12.6877,6.59377 8.41899,4.7638 0,0 z m -10.22265,6.57421 c -3.63182,-0.0729 2.39316,3.37471 0,0 z m 1556.85352,1.68165 -1.3222,2.59106 z m -1561.37696,0.0215 -0.0172,1.1379 z m 1552.23836,1.82226 c -6.8454,5.59163 9.0744,2.86298 0,0 z M 231.22709,291.7215 c -5.24755,1.50544 3.81314,3.56543 0,0 z m 1613.62701,1.19726 c -4.4593,3.28402 4.719,1.42398 0,0 z m 8.4648,0.0723 c -3.7495,3.40484 4.3951,0.9516 0,0 z m -1627.75197,0.45703 c -9.21457,2.57804 3.7791,4.15183 0,0 z m -61.74413,1.88672 c 10.21642,2.0624 -7.92348,3.33455 0,0 z m -9.26367,1.39844 c 4.42947,-0.51269 -1.8009,3.08842 0,0 z M 1775.11,297.47348 c -2.8016,3.51536 4.935,0.70354 0,0 z m -1623.86142,2.7031 c 7.63086,8.52795 -7.57844,5.14651 0,0 z m 1693.20312,0.87109 c -4.1274,0.41058 2.9973,2.55601 0,0 z m -750.1406,1.70312 c -4.9994,8.12495 7.5469,2.57154 0,0 z m -953.97658,0.25586 c 7.84995,4.06693 -5.82441,5.37342 0,0 z m 44.41602,1.26953 c -10.01059,5.88617 17.47644,2.19668 0,0 z m 1579.01566,3.87891 c -26.7194,8.50343 12.1036,12.58271 0,0 z m -1591.26762,0.2207 c 1.88651,4.68806 -5.48788,1.42955 0,0 z m 1666.28912,0.52735 c -3.5743,1.17076 2.8866,3.01236 0,0 z m -1643.52155,0.41797 c -1.99285,3.96864 6.82787,0.65081 0,0 z m 1639.77935,1.91406 c -3.7334,-0.27858 1.5697,3.02241 0,0 z m -1680.76958,0.0508 c 6.24868,-0.24962 -3.7904,4.10388 0,0 z m 33.13868,0.69336 c -5.13633,-0.42799 2.45936,3.17021 0,0 z m 1613.7071,1.92578 c -3.3339,-0.87542 1.6111,2.58789 0,0 z m 11.1523,1.85352 c -4.3712,2.69874 2.429,4.13154 0,0 z m -12.5137,0.75195 c -13.7643,10.8031 17.3032,3.26418 0,0 z m -9.3964,0.6543 c -11.1415,6.65841 12.2412,10.54294 0,0 z m -1627.83212,0.34177 c -7.42782,6.74692 9.26888,2.18829 0,0 z m 1656.03912,1.4336 c -32.6038,27.23725 19.7242,19.19818 0,0 z m -35.3027,1.49414 c -3.3046,4.10038 5.0395,1.90137 0,0 z m -1669.1036,0.62695 c -30.569619,17.1661 -2.55898,30.20379 0,0 z m 21.0957,0.39844 c -4.43112,-0.50923 1.80282,3.08905 0,0 z m 1637.9961,0.28515 c -16.3198,2.43747 -0.5444,8.712 0,0 z m -1635.0547,0.52344 c -5.04006,3.50191 5.70632,2.86496 0,0 z m 54.4707,0.59766 c -6.93974,3.3979 5.4569,3.86677 0,0 z m 1586.7012,1.32031 c -4.8378,17.73701 16.5408,5.57431 0,0 z m 24.4356,0.5 c -3.7229,1.22761 3.021,2.35672 0,0 z m -1659.6114,0.12109 c -16.63543,22.27618 8.29982,13.47942 0,0 z m -10.23633,0.72266 c -14.95143,0.79698 1.39404,11.0922 0,0 z m 1605.93563,0.01 c -5.6386,12.54412 11.3386,3.75007 0,0 z m -1600.0118,0.7832 c -4.62317,2.25835 1.53941,4.57932 0,0 z m 1615.2715,0.45508 c -3.964,3.85685 4.9508,2.76221 0,0 z M 182.80131,327.0672 c -9.58848,11.10502 12.44755,5.66783 0,0 z m 1613.48439,2.18945 c -11.8493,-1.22721 2.0804,10.24509 0,0 z m -1626.76759,0.86914 c -4.64154,3.70294 5.91171,2.56705 0,0 z m -34.80078,1.10743 c -3.71825,1.23082 3.02354,2.35373 0,0 z m -12.54492,1.82617 c -5.05724,0.51765 3.01517,3.35932 0,0 z m 1610.90039,0.23633 c -8.7724,3.51153 5.0515,4.76236 0,0 z M 158.57085,333.8504 c -8.36041,-2.32333 -7.59594,8.10765 0,0 z m 1628.88875,1.86914 c -8.2582,2.64965 12.7129,1.84513 0,0 z M 133.481,336.04572 c -3.37978,9.24455 6.92876,3.33976 0,0 z m -8.85547,0.35546 c -16.7014,14.18145 16.92249,6.4069 0,0 z m 1639.01177,2.08399 c -8.941,1.0776 1.9438,5.01782 0,0 z M 114.17046,340.409 c -6.22916,2.50514 2.30569,5.35173 0,0 z m 49.77929,1.52539 c -29.2412,9.47526 17.43552,13.542 0,0 z m -38.54101,2.78711 c -3.54977,0.24082 2.30218,2.54031 0,0 z m 1644.66016,1.45117 c 5.3278,0.36065 -3.4524,3.81223 0,0 z m -31.2148,0.18555 -0.6828,0.90595 z M 91.082564,346.86798 c -3.725142,1.23011 3.022211,2.35761 0,0 z m 1637.703136,1.21289 c -3.1565,4.2353 7.1352,0.37163 0,0 z M 87.227096,348.44806 c -5.247566,1.50543 3.813126,3.56544 0,0 z m 1665.920004,0.48047 c 5.8666,-0.66552 -2.4998,6.72908 0,0 z m -1007.46493,2.9707 c -3.75291,3.40727 4.39569,0.95395 0,0 z m 1028.49033,0.25781 c 6.6022,7.77335 -4.7887,7.48814 0,0 z m 10.6191,0.38868 c 9.5299,4.66705 -7.3273,3.3557 0,0 z m -47.1016,0.8789 c 2.9107,5.19811 9.5118,-1.61568 0,0 z m -1657.494154,3.9336 c -0.457687,3.82411 4.844821,-1.46458 0,0 z m 68.812504,2.36914 c -1.89647,4.43763 5.04767,1.20262 0,0 z m 1610.58405,1.28125 c 9.8298,0.48754 -1.4201,6.65427 0,0 z m 10.2715,0.43945 c 3.5513,0.2438 -2.3036,2.5408 0,0 z M 71.943893,364.57111 c -4.662539,0.19091 3.308005,3.58553 0,0 z m 8.296875,0.33203 c -3.569931,1.1734 2.888563,3.01025 0,0 z M 1694.1705,365.409 c -4.4782,4.02247 5.01,0.65131 0,0 z m -1552.12114,0.18554 c -5.2186,7.27653 11.22891,0.78137 0,0 z m -5.56445,2.13868 c -6.8258,0.59959 1.64148,5.26287 0,0 z M 1719.4185,371.159 c 2.9592,23.69494 -33.3838,11.15614 -1.6466,2.15259 z m -36.6777,2.61328 c -14.7637,5.04891 6.4954,7.30005 0,0 z m -1554.49808,3.03125 c -3.36624,5.90718 11.7711,-0.001 0,0 z m 1549.63288,2.24805 c -14.3495,5.3095 4.3698,9.18521 0,0 z m 72.3496,0.45117 c 10.9512,24.77954 -27.1674,0.77959 0,0 z m -1625.70709,0.77734 c -5.65207,4.89237 8.35075,2.51543 0,0 z m 1610.04299,3.14453 c 9.0795,-1.05034 -5.5301,4.71823 0,0 z m -76.4355,5.11524 -0.6807,0.90631 z m 7.3008,0.33789 c -25.2079,6.8068 2.6531,18.15182 0,0 z m -35.1407,22.72851 0.017,1.13913 z m -858.78322,4.34766 c 26.72045,14.64187 -4.17832,20.82831 0,0 z m 857.77542,0.23242 c 3.1991,-0.33855 -0.7636,4.30299 0,0 z m 27.711,5.94727 c 0.4573,6.0586 -7.0857,0.27405 0,0 z m 31.9804,7.15429 c 12.0426,-0.53245 0.2424,5.70819 0,0 z m -89.4765,3.30274 c 3.4211,-1.45414 -1.4241,3.37606 0,0 z m 41.957,0.0801 c 3.2832,2.83945 -6.3167,2.20154 0,0 z m -39.9824,7.33593 c 4.4295,-0.51264 -1.8011,3.08839 0,0 z m -14.9707,1.41016 1.7733,1.90429 z m -802.45319,4.27344 c 3.25062,5.16739 -6.81304,0.8726 0,0 z m 3.66405,15.28906 c -3.56988,10.77994 9.60166,3.55852 0,0 z m 33.07813,35.50586 c -1.80296,7.52169 9.734,0.83298 0,0 z m 8.97657,6.6543 c -2.12439,6.85088 8.50577,5.63838 0,0 z m 554.70514,33.55859 0.017,1.13791 z m -330.2071,5.30273 c -5.8684,-0.10546 4.0106,2.75086 0,0 z m -25.5078,0.59961 c -16.4102,6.4584 6.5517,9.62452 0,0 z m 162.5078,15.95118 c -4.4295,-0.51267 1.801,3.08839 0,0 z" />
      <path
         style="fill:#5aaabc;stroke-width:0.727273;fill-opacity:1"
         d="m 1088.9516,654.81041 c -32.567,-3.77317 -68.9887,-0.23883 -98.9465,-2.76149 C 935.95545,649.84564 881.54431,638.18924 830.61375,623.49579 795.93637,612.21574 759.47685,597.60795 725.43661,579.63643 642.49483,536.79785 571.06754,468.30672 525.93039,387.37757 515.00841,349.3243 462.08574,295.19453 498.07863,260.167 c -6.65179,-15.63703 20.96478,-14.41509 43.73955,-9.95208 19.91826,10.82916 36.87501,53.41687 55.40345,48.89997 -27.0929,28.38694 13.41224,60.69061 23.47468,89.067 15.19482,19.78102 25.42214,51.27391 52.53871,58.97636 7.21312,6.39957 33.74112,30.60472 60.9468,50.61228 54.32917,36.38661 116.15678,59.80816 180.72728,71.28281 89.0616,17.95862 181.6615,17.98726 271.6364,4.06288 51.0064,-5.85175 104.1716,-19.00227 152.243,-29.11617 43.8243,-18.03341 91.8611,-28.63008 132.4842,-50.84817 22.1939,-8.96362 52.9203,-21.64383 77.0909,-34.93197 21.1284,-17.16941 41.2982,-11.9034 50.6883,-32.76531 20.3991,-0.1123 37.5608,-31.36172 54.1889,-16.89396 11.2968,-8.11679 50.2923,-20.60903 41.7234,-23.4203 -3.8295,-8.4453 11.3312,-34.35943 17.7631,-27.24148 -8.9,-1.13197 23.6377,-23.63787 6.9884,-8.04454 12.652,7.63909 29.177,27.85887 27.5557,-0.67735 12.1343,-4.31505 23.4462,-7.74381 29.5603,-1.82239 8.3113,-16.58927 10.4903,2.31013 26.072,-1.41028 -16.2222,29.15371 -55.0526,46.22097 -74.1004,63.77626 -14.9032,10.5519 -32.406,27.50857 -43.0237,31.37011 -19.2369,21.0185 -35.8203,22.2536 -58.0416,43.27272 -31.8467,14.4351 -49.52,32.51158 -81.7128,39.90367 -26.6303,11.23182 -51.5425,32.59419 -83.9802,41.75877 -56.7162,26.80615 -117.7655,45.59115 -178.1723,57.97471 -42.609,18.19306 -91.992,17.61767 -135.668,25.37481 -20.727,-2.64917 -43.7203,2.64289 -59.2531,5.43506 z m 296.1393,-117.35588 c -0.8795,-2.65903 -1.7937,2.59078 0,0 z m 203.0823,-95.04762 c -4.3985,-3.71781 1.2702,4.11138 0,0 z m 14.7359,-1.67965 c -2.7958,-2.60742 -1.8642,2.69374 0,0 z m 39.2727,-6.90909 c -0.085,-4.19781 -4.9481,4.43298 0,0 z m -41.4545,-1.17675 c -2.5241,-1.25371 -1.2002,3.39547 0,0 z m 92.6494,-1.06455 c -8.8094,-5.47042 -4.92,0.1373 0,0 z m -37.3289,-6.87519 c 4.5773,-6.66194 -7.0449,1.72062 0,0 z m -25.517,-7.62836 c -3.4222,-3.33486 1.3625,3.70308 0,0 z m 0.3783,-4.70969 c -0.8795,-2.65904 -1.7937,2.59075 0,0 z m 114.7217,-21.56349 c 22.6675,-21.06708 -20.3555,-7.73715 2e-4,0 z m -0.1762,-11.81325 c 4.5007,-4.78512 1.8603,3.18114 0,0 z m -53.8182,10.46765 c -1.8032,-3.832 -1.8032,3.832 0,0 z m 13.5521,-1.02775 c 16.1563,0.34468 18.0694,-28.9452 10.2768,-12.10073 -9.668,1.31743 -16.8917,4.73905 -10.2767,12.10076 z m 32.1074,-4.30094 c -4.3114,-3.07604 -6.5137,4.246 0,0 z m 25.9777,-20.49085 c -7.8059,-7.47351 -2.7608,3.73906 0,0 z m 7.6355,-1.45319 c -1.858,-2.60894 -1.858,2.60894 0,0 z M 1776,357.40673 c -3.1294,-14.90267 -3.6109,7.38333 0,0 z m 10.9091,-1.77037 c -2.4479,-7.54105 -7.7155,0.64142 0,0 z m -31.753,-6.22366 c -4.3882,-3.52339 -1.118,7.13363 0,0 z m 16.4803,-2.13998 c -2.7872,-3.91359 -2.7872,3.91359 0,0 z m -581.8182,211.99999 c 2.7958,-2.60742 1.8642,2.69374 0,0 z m 328,-19.61077 c 4.3693,-7.84451 4.6909,3.57511 0,0 z m -95.0738,-123.0853 c -7.3154,-17.32455 -58.4899,14.68515 -59.8353,-31.85346 -9.5653,-25.34497 -45.1912,-12.44908 -29.5654,-36.1261 14.43,-23.93232 -20.2769,-53.02493 -28.5795,-76.96072 -15.7739,-20.51875 -26.5176,-51.45928 -52.9462,-60.381 -10.0391,10.41229 -12.5196,-29.36757 -37.2726,-29.07355 -41.5936,-38.75777 -93.1408,-60.18231 -146.3056,-78.11553 C 988.5522,81.393404 905.72717,73.944307 823.17018,77.798861 744.61352,80.33535 667.63792,99.127109 591.33616,113.89485 c -36.07254,12.70938 -79.0057,29.87598 -116.60909,41.45859 -24.67918,13.13237 -44.11078,20.26744 -71.2116,34.36203 -14.53583,4.63184 -43.51267,16.35794 -54.47152,29.98578 -19.21988,-3.38986 -21.16724,17.69719 -41.62519,21.87464 -29.02509,22.81981 -31.32884,0.8576 -43.4807,27.89823 -40.11832,29.26167 19.59614,-23.61972 -4.81691,-8.08435 -13.16516,4.28401 -25.14949,17.29694 -29.33567,18.56651 -8.61058,12.28324 -23.48069,17.65183 -15.84725,26.22552 -15.06715,8.70966 -4.20612,12.41018 -19.34609,-2.54545 -13.20762,-26.24339 -13.97474,14.04303 -28.02081,9.85285 -17.67171,4.45138 -17.69348,-9.45521 -25.04513,7.89511 6.29314,-17.59854 -34.58589,9.41501 -9.5105,-20.83887 24.64976,-19.36435 46.96861,-43.60928 71.42201,-50.49202 0.55533,-26.00478 41.93289,-16.93385 32.50792,-23.14439 -16.18062,-13.1287 41.44341,-26.61821 51.18153,-44.67491 21.3076,-11.21539 46.51108,-28.80379 64.14538,-35.68333 20.448,-5.39428 53.21413,-33.29863 57.45454,-23.6288 22.49236,-25.740468 62.81236,-29.669515 93.09091,-45.831146 58.9959,-24.890941 118.96222,-35.351788 178.9091,-53.086369 48.99872,-9.110015 95.89994,-13.88823 145.31151,-15.2022342 15.11537,-8.52835926 43.08264,1.0595953 62.95525,-1.896634 41.50644,-1.3685882 82.57626,0.8713513 124.37575,11.2058402 37.7484,4.407415 74.8184,14.908979 108.9682,28.062213 59.9849,20.260305 117.2117,53.654138 167.4955,93.65584 63.2078,54.46021 114.6765,122.80416 139.4563,202.12955 29.3146,35.59946 -3.7809,53.12153 -6.5452,74.61759 z M 156.18216,312.18181 c -3.2558,-3.43711 -3.79484,3.93936 0,0 z m 16.18148,-1.57688 c 2.01702,-6.06539 -5.08836,2.35099 0,0 z m -30.02582,-4.3609 c -2.96491,-9.03343 -5.34564,4.0727 0,0 z m 9.95309,-0.66828 c -0.41445,-13.83456 -6.1727,3.10683 0,0 z M 156,297.45454 c -2.79582,-2.60741 -1.86411,2.69373 0,0 z m 10.54546,-0.38646 c -3.55145,-4.9936 -8.70282,2.64914 0,0 z m 42.44482,-6.52263 c -3.36952,-3.84506 26.2416,-17.99533 9.47847,-16.66098 -4.7318,-3.31524 -25.81131,15.91683 -9.47847,16.66098 z m 8.98976,-10.26239 c -3.39061,-6.20035 6.81639,-1.78943 0,0 z m -37.11666,2.17959 c 17.36047,-10.98544 -12.62207,-19.35437 -5.83306,-0.0384 l 5.83307,0.0384 z m -3.63611,-0.75053 c -2.35102,-3.8436 6.36887,0.0338 0,0 z M 191.882,275.3398 c -4.2027,-3.86985 -5.77913,4.25026 0,0 z m 43.5034,-5.12662 c -2.091,-4.46314 -1.48796,4.6877 0,0 z M 296,247.63636 c -1.80314,-3.83199 -1.80314,3.83199 0,0 z m 0.0939,-5.65151 c -4.4344,-1.4024 2.55671,4.66252 0,0 z m -7.36667,0.51768 c -2.25899,-2.63751 -1.38005,3.66211 0,0 z m -16.97151,-5.82415 c 0.80587,-6.90863 -9.96871,5.39055 0,0 z m 54.06242,-10.17585 c -2.25899,-2.63751 -1.38005,3.66211 0,0 z m -40.15832,-0.93563 c -2.99213,-2.92207 -3.66745,4.02252 0,0 z m 36.23408,-4.27903 c -3.17272,1.70432 2.08932,2.11015 0,0 z m 2.30303,-2.24242 c -2.44518,-3.23614 -2.64274,3.8153 0,0 z m 15.4394,-1.59091 c -3.71142,-5.65167 -3.5324,3.73612 0,0 z m 159.07576,-74.62121 c -2.87978,-1.52829 -0.67972,1.63878 0,0 z m 42.37878,-20.65151 c -0.87952,-2.65904 -1.79369,2.59074 0,0 z M 1648.7273,405.81817 c 1.858,-2.60894 1.858,2.60894 0,0 z m 6.5454,-3.27272 c -5.0007,-17.80689 32.078,-18.64272 0,0 z m 1.8256,-13.46641 c 2.2468,-2.14206 0.5692,2.59611 0,0 z m 16.3563,-4.36203 c 8.7613,-14.81422 5.1484,4.15764 0,0 z M 123.27273,382.54545 c 0.32557,-6.58242 7.87957,3.63388 0,0 z m 4.25097,-4.03137 c -1.90731,-5.61227 10.83792,4.67617 0,0 z m 1551.2444,-0.0738 c 7.1111,-12.17295 6.9099,3.32257 0,0 z m -1544.814,-8.80392 c 5.34836,-5.75525 1.94835,3.73363 0,0 z m 7.16325,-1.24087 c -1.43909,-7.66648 10.9394,3.08124 0,0 z m 1552.42815,-0.97567 c -0.1116,-4.88267 4.7748,0.35358 0,0 z M 79.385091,366.22716 c 1.620562,-4.30409 1.22976,3.49741 0,0 z m -8.839636,-0.83323 c 2.455215,-3.24216 2.579844,3.87334 0,0 z m 1628.363645,0.13842 c 5.8504,-6.64787 0.8417,4.26925 0,0 z M 149.13151,361.8671 c -1.82842,-5.67965 4.61144,1.82161 0,0 z m -68.222419,-3.11677 c -3.249997,-3.53244 4.682715,0.704 0,0 z M 1739.8889,355.2459 c -8.7582,-4.27918 10.6331,-0.10785 0,0 z M 156.76716,350.72726 c 3.48187,-22.22479 24.23017,4.63174 0,0 z m -70.836614,-0.58325 c 2.228716,-5.30852 2.530105,3.86685 0,0 z M 1728.3636,349.81817 c -1.1304,-5.01445 6.3877,2.68457 0,0 z M 90.181819,348.04292 c 1.380025,-3.66212 2.259021,2.63749 0,0 z m 1647.643681,-1.1457 c 2.247,-2.14217 0.5693,2.5962 0,0 z M 124.36364,345.45454 c 1.85811,-2.60907 1.85816,2.60906 0,0 z m -20.94965,-3.60084 c -13.377111,-15.75053 27.69856,-32.52946 8.62591,-9.60589 -18.393048,-2.55737 10.01173,13.21263 -8.62591,9.60589 z M 112,342.99813 c 4.53964,-7.61271 1.81204,4.42718 0,0 z m 8.90909,0.5202 c 3.51725,-18.49399 15.88234,4.86762 0,0 z m 13.14415,-2.33003 c -3.14826,-13.06355 5.37674,2.61761 0,0 z m 1674.29816,-1.47914 c 7.7981,-8.59205 7.5694,-35.71633 17.8475,-10.28659 -6.3725,-4.18348 -13.6238,17.74464 -17.8475,10.28659 z m -47.4596,1.25188 c 5.4869,-6.72461 3.0679,2.56245 0,0 z M 140.72727,338.90908 c 1.03151,-27.31334 11.44405,-7.95856 0,0 z m 1649.09093,-0.66667 c -13.4345,-3.9482 7.1435,-2.78024 0,0 z m -58.9091,-1.80821 c 3.3338,-8.04839 5.3791,1.83367 0,0 z M 152,336.08093 c 4.40288,-4.781 13.11932,-1.16559 0,0 z m -31.27273,-1.83852 c 2.57877,-3.88291 2.54097,3.23685 0,0 z m 1661.09093,-0.42424 c -10.5761,-22.76548 12.6995,1.71035 0,0 z m -1598.78229,0.18182 c -6.26808,-14.89023 9.55528,-1.47582 0,0 z m 1608.23679,-0.1811 c -1.0135,-9.20167 14.3831,-2.96305 0,0 z M 133.81818,332.40655 c 1.38007,-3.6621 2.25899,2.63751 0,0 z m 34.68708,-0.29975 c 0.57911,-5.68723 5.47188,2.97741 0,0 z m 1572.00384,0.11137 c -4.5343,-16.78869 9.2481,2.86913 0,0 z M 128.36965,330.19154 c 7.73931,-11.23786 8.30796,1.04727 0,0 z m 1626.05175,-1.16179 c 0.2903,-6.29823 4.3535,2.88757 0,0 z m -1616.23958,-0.6232 c 3.72265,-6.36602 0.93995,4.28564 0,0 z m 1628.36368,-2.13569 c 15.0904,-12.01434 2.4575,3.85835 0,0 z M 190.99916,325.42701 c 2.17949,-6.89065 5.35614,2.46335 0,0 z m 1611.90994,0.43409 c 1.38,-3.66204 2.2589,2.63746 0,0 z M 137.05175,324.30026 c 0.95689,-5.79847 5.31008,2.9444 0,0 z m 1653.95645,-0.30444 c -6.7351,-11.25987 5.016,-6.95532 0,0 z m 7.2061,-0.30693 c -7.306,-12.3877 18.0414,-6.58125 0,0 z m -15.3779,-1.07072 c -0.4794,-5.86481 4.5137,2.06222 0,0 z M 133.81818,322.18181 c 2.79582,-2.60741 1.8641,2.69372 0,0 z m 27.3973,-1.20876 c 0.14794,-8.65922 8.9108,1.32458 0,0 z m 1595.66282,-4.2325 c 2.8359,-19.92429 21.3933,0.64588 0,0 z m 54.0308,1.23326 c 2.6246,-6.51744 1.829,3.79872 0,0 z M 1800,314.13889 c 2.0947,-1.38591 1.6974,2.49805 0,0 z M 185.81818,312.72727 c 2.83865,-2.65684 2.83871,2.65683 0,0 z m 1648.00002,-0.72728 c 2.6096,-2.76883 0.9031,2.86715 0,0 z M 195.16006,310.87772 c -1.71806,-4.85938 5.9073,3.50618 0,0 z m 1642.77054,-0.65056 c 1.6205,-4.30406 1.2296,3.49737 0,0 z M 182.17122,306.16467 c 0.65461,-6.25419 16.37513,5.32779 0,0 z m 1661.10148,-4.3465 c 1.8642,-2.69365 2.7957,2.60737 0,0 z m -68.2842,-2.60066 c -1.0596,-4.82536 4.0429,2.07969 0,0 z M 223.27273,296.1234 c 3.80709,-6.65527 4.89774,0.93619 0,0 z M 1844.141,294.80764 c 0.2718,-4.99451 4.2492,1.55251 0,0 z m 8.7273,0 c -0.2388,-4.69399 3.9148,1.15697 0,0 z m -1622.93775,-1.3909 c 2.22869,-5.30855 2.53013,3.86686 0,0 z m 1550.19065,-0.0834 c 0.5844,-7.76963 8.6756,3.30426 0,0 z m 9.0385,-2.96969 c 3.6888,-5.51919 0.085,4.56739 0,0 z M 228.72727,289.45454 c 0.87954,-2.659 1.79366,2.59074 0,0 z m 4,-1.86111 c 2.259,-2.63751 1.38005,3.66213 0,0 z m 8.48737,-2.80597 c 4.06001,-10.89272 8.31541,1.63175 0,0 z m 1553.51266,-2.89078 c -3.4628,-5.68494 8.0521,3.0755 0,0 z m 3.9566,-3.89669 c 4.3508,-4.62633 4.3508,4.62634 0,0 z M 266.90909,270.54545 c 1.85815,-2.60906 1.85815,2.60906 0,0 z m 8.50462,-15.73781 c -0.23872,-4.69404 3.91474,1.157 0,0 z m 457.6772,-153.63892 c 4.66314,-4.123171 1.88563,2.31212 0,0 z M 999.7576,14.060605 c -2.24003,-3.293626 3.1998,0.62206 0,0 z"
         id="path1812"
         inkscape:label="path1812" />
    </g>
  </g>
</svg>
